HIERARCHY
ROOT mixamorig:Hips
{
	OFFSET -0.000008 104.274872 1.554316
	CHANNELS 6 Xposition Yposition Zposition Xrotation Yrotation Zrotation
	JOINT mixamorig:Spine
	{
		OFFSET -0.000005 10.181595 0.131519
		CHANNELS 6 Xposition Yposition Zposition Xrotation Yrotation Zrotation
		JOINT mixamorig:Spine1
		{
			OFFSET -0.000000 9.893959 -1.470707
			CHANNELS 6 Xposition Yposition Zposition Xrotation Yrotation Zrotation
			JOINT mixamorig:Spine2
			{
				OFFSET -0.000000 9.220757 -1.370641
				CHANNELS 6 Xposition Yposition Zposition Xrotation Yrotation Zrotation
				JOINT mixamorig:Neck
				{
					OFFSET 0.000001 16.740417 -2.049036
					CHANNELS 6 Xposition Yposition Zposition Xrotation Yrotation Zrotation
					JOINT mixamorig:Head
					{
						OFFSET 0.000000 9.617874 1.685006
						CHANNELS 6 Xposition Yposition Zposition Xrotation Yrotation Zrotation
						JOINT mixamorig:HeadTop_End
						{
							OFFSET 0.000002 22.037354 7.501101
							CHANNELS 6 Xposition Yposition Zposition Xrotation Yrotation Zrotation
							End Site
							{
								OFFSET 0.000168 2310.654297 -282.823242
							}
						}
					}
				}
				JOINT mixamorig:RightShoulder
				{
					OFFSET -4.569970 11.014908 -2.160885
					CHANNELS 6 Xposition Yposition Zposition Xrotation Yrotation Zrotation
					JOINT mixamorig:RightArm
					{
						OFFSET -10.592851 -0.524811 -2.232101
						CHANNELS 6 Xposition Yposition Zposition Xrotation Yrotation Zrotation
						JOINT mixamorig:RightForeArm
						{
							OFFSET -27.841511 0.000031 -0.000004
							CHANNELS 6 Xposition Yposition Zposition Xrotation Yrotation Zrotation
							JOINT mixamorig:RightHand
							{
								OFFSET -28.328831 -0.000015 0.000015
								CHANNELS 6 Xposition Yposition Zposition Xrotation Yrotation Zrotation
								JOINT mixamorig:RightHandThumb1
								{
									OFFSET -2.464806 -1.573990 2.681852
									CHANNELS 6 Xposition Yposition Zposition Xrotation Yrotation Zrotation
									JOINT mixamorig:RightHandThumb2
									{
										OFFSET -3.215179 -1.872803 1.924282
										CHANNELS 6 Xposition Yposition Zposition Xrotation Yrotation Zrotation
										JOINT mixamorig:RightHandThumb3
										{
											OFFSET -2.654831 -1.527969 1.512609
											CHANNELS 6 Xposition Yposition Zposition Xrotation Yrotation Zrotation
											JOINT mixamorig:RightHandThumb4
											{
												OFFSET -2.018814 -1.152008 1.108052
												CHANNELS 6 Xposition Yposition Zposition Xrotation Yrotation Zrotation
												End Site
												{
													OFFSET -188.809540 -114.533607 132.431396
												}
											}
										}
									}
								}
								JOINT mixamorig:RightHandIndex1
								{
									OFFSET -9.108284 -0.517868 2.259835
									CHANNELS 6 Xposition Yposition Zposition Xrotation Yrotation Zrotation
									JOINT mixamorig:RightHandIndex2
									{
										OFFSET -3.699989 0.000000 0.001215
										CHANNELS 6 Xposition Yposition Zposition Xrotation Yrotation Zrotation
										JOINT mixamorig:RightHandIndex3
										{
											OFFSET -2.850006 0.000031 -0.000522
											CHANNELS 6 Xposition Yposition Zposition Xrotation Yrotation Zrotation
											JOINT mixamorig:RightHandIndex4
											{
												OFFSET -2.772186 -0.000015 -0.000020
												CHANNELS 6 Xposition Yposition Zposition Xrotation Yrotation Zrotation
												End Site
												{
													OFFSET -277.218445 0.000000 -0.050231
												}
											}
										}
									}
								}
								JOINT mixamorig:RightHandMiddle1
								{
									OFFSET -9.532516 -0.000031 -0.000023
									CHANNELS 6 Xposition Yposition Zposition Xrotation Yrotation Zrotation
									JOINT mixamorig:RightHandMiddle2
									{
										OFFSET -3.700005 -0.000015 0.003713
										CHANNELS 6 Xposition Yposition Zposition Xrotation Yrotation Zrotation
										JOINT mixamorig:RightHandMiddle3
										{
											OFFSET -2.949974 0.000015 -0.002054
											CHANNELS 6 Xposition Yposition Zposition Xrotation Yrotation Zrotation
											JOINT mixamorig:RightHandMiddle4
											{
												OFFSET -2.946640 0.000000 -0.000156
												CHANNELS 6 Xposition Yposition Zposition Xrotation Yrotation Zrotation
												End Site
												{
													OFFSET -294.664337 0.000000 -0.113670
												}
											}
										}
									}
								}
								JOINT mixamorig:RightHandRing1
								{
									OFFSET -9.103600 -0.043076 -1.865134
									CHANNELS 6 Xposition Yposition Zposition Xrotation Yrotation Zrotation
									JOINT mixamorig:RightHandRing2
									{
										OFFSET -3.379288 0.000000 -0.001055
										CHANNELS 6 Xposition Yposition Zposition Xrotation Yrotation Zrotation
										JOINT mixamorig:RightHandRing3
										{
											OFFSET -2.889687 -0.000015 0.000379
											CHANNELS 6 Xposition Yposition Zposition Xrotation Yrotation Zrotation
											JOINT mixamorig:RightHandRing4
											{
												OFFSET -2.638809 -0.000015 0.000941
												CHANNELS 6 Xposition Yposition Zposition Xrotation Yrotation Zrotation
												End Site
												{
													OFFSET -263.880371 0.000000 0.516020
												}
											}
										}
									}
								}
								JOINT mixamorig:RightHandPinky1
								{
									OFFSET -8.076683 -0.486710 -3.806280
									CHANNELS 6 Xposition Yposition Zposition Xrotation Yrotation Zrotation
									JOINT mixamorig:RightHandPinky2
									{
										OFFSET -3.600014 -0.000015 -0.003747
										CHANNELS 6 Xposition Yposition Zposition Xrotation Yrotation Zrotation
										JOINT mixamorig:RightHandPinky3
										{
											OFFSET -2.099983 0.000000 -0.005739
											CHANNELS 6 Xposition Yposition Zposition Xrotation Yrotation Zrotation
											JOINT mixamorig:RightHandPinky4
											{
												OFFSET -2.115768 -0.000031 -0.003680
												CHANNELS 6 Xposition Yposition Zposition Xrotation Yrotation Zrotation
												End Site
												{
													OFFSET -211.577087 0.000000 -0.350686
												}
											}
										}
									}
								}
							}
						}
					}
				}
				JOINT mixamorig:LeftShoulder
				{
					OFFSET 4.570447 11.014725 -2.160855
					CHANNELS 6 Xposition Yposition Zposition Xrotation Yrotation Zrotation
					JOINT mixamorig:LeftArm
					{
						OFFSET 10.592371 -0.524597 -2.232119
						CHANNELS 6 Xposition Yposition Zposition Xrotation Yrotation Zrotation
						JOINT mixamorig:LeftForeArm
						{
							OFFSET 27.841532 -0.000031 0.000026
							CHANNELS 6 Xposition Yposition Zposition Xrotation Yrotation Zrotation
							JOINT mixamorig:LeftHand
							{
								OFFSET 28.328846 -0.000061 0.000022
								CHANNELS 6 Xposition Yposition Zposition Xrotation Yrotation Zrotation
								JOINT mixamorig:LeftHandThumb1
								{
									OFFSET 2.466141 -1.576172 2.681732
									CHANNELS 6 Xposition Yposition Zposition Xrotation Yrotation Zrotation
									JOINT mixamorig:LeftHandThumb2
									{
										OFFSET 3.217812 -1.872070 1.916482
										CHANNELS 6 Xposition Yposition Zposition Xrotation Yrotation Zrotation
										JOINT mixamorig:LeftHandThumb3
										{
											OFFSET 2.656029 -1.528778 1.514513
											CHANNELS 6 Xposition Yposition Zposition Xrotation Yrotation Zrotation
											JOINT mixamorig:LeftHandThumb4
											{
												OFFSET 2.020889 -1.154053 1.115139
												CHANNELS 6 Xposition Yposition Zposition Xrotation Yrotation Zrotation
												End Site
												{
													OFFSET 190.885437 -115.081749 130.048782
												}
											}
										}
									}
								}
								JOINT mixamorig:LeftHandIndex1
								{
									OFFSET 9.109314 -0.518021 2.259871
									CHANNELS 6 Xposition Yposition Zposition Xrotation Yrotation Zrotation
									JOINT mixamorig:LeftHandIndex2
									{
										OFFSET 3.699989 0.000000 -0.000322
										CHANNELS 6 Xposition Yposition Zposition Xrotation Yrotation Zrotation
										JOINT mixamorig:LeftHandIndex3
										{
											OFFSET 2.850006 0.000000 0.000352
											CHANNELS 6 Xposition Yposition Zposition Xrotation Yrotation Zrotation
											JOINT mixamorig:LeftHandIndex4
											{
												OFFSET 2.774864 -0.000031 -0.000027
												CHANNELS 6 Xposition Yposition Zposition Xrotation Yrotation Zrotation
												End Site
												{
													OFFSET 277.486267 0.000000 -0.009857
												}
											}
										}
									}
								}
								JOINT mixamorig:LeftHandMiddle1
								{
									OFFSET 9.533394 0.000061 0.000044
									CHANNELS 6 Xposition Yposition Zposition Xrotation Yrotation Zrotation
									JOINT mixamorig:LeftHandMiddle2
									{
										OFFSET 3.699989 -0.000015 -0.000231
										CHANNELS 6 Xposition Yposition Zposition Xrotation Yrotation Zrotation
										JOINT mixamorig:LeftHandMiddle3
										{
											OFFSET 2.949997 -0.000015 -0.000059
											CHANNELS 6 Xposition Yposition Zposition Xrotation Yrotation Zrotation
											JOINT mixamorig:LeftHandMiddle4
											{
												OFFSET 2.952896 0.000031 0.000063
												CHANNELS 6 Xposition Yposition Zposition Xrotation Yrotation Zrotation
												End Site
												{
													OFFSET 295.289337 0.000000 0.022810
												}
											}
										}
									}
								}
								JOINT mixamorig:LeftHandRing1
								{
									OFFSET 9.104523 -0.042999 -1.865074
									CHANNELS 6 Xposition Yposition Zposition Xrotation Yrotation Zrotation
									JOINT mixamorig:LeftHandRing2
									{
										OFFSET 3.150009 -0.000031 0.000043
										CHANNELS 6 Xposition Yposition Zposition Xrotation Yrotation Zrotation
										JOINT mixamorig:LeftHandRing3
										{
											OFFSET 2.949982 -0.000015 0.000040
											CHANNELS 6 Xposition Yposition Zposition Xrotation Yrotation Zrotation
											JOINT mixamorig:LeftHandRing4
											{
												OFFSET 2.644348 0.000000 0.000057
												CHANNELS 6 Xposition Yposition Zposition Xrotation Yrotation Zrotation
												End Site
												{
													OFFSET 264.434631 0.000000 0.012105
												}
											}
										}
									}
								}
								JOINT mixamorig:LeftHandPinky1
								{
									OFFSET 8.077789 -0.486847 -3.806259
									CHANNELS 6 Xposition Yposition Zposition Xrotation Yrotation Zrotation
									JOINT mixamorig:LeftHandPinky2
									{
										OFFSET 3.599953 0.000031 0.014727
										CHANNELS 6 Xposition Yposition Zposition Xrotation Yrotation Zrotation
										JOINT mixamorig:LeftHandPinky3
										{
											OFFSET 2.100021 0.000015 0.007705
											CHANNELS 6 Xposition Yposition Zposition Xrotation Yrotation Zrotation
											JOINT mixamorig:LeftHandPinky4
											{
												OFFSET 2.125504 0.000031 0.007517
												CHANNELS 6 Xposition Yposition Zposition Xrotation Yrotation Zrotation
												End Site
												{
													OFFSET 212.550781 0.000000 0.625752
												}
											}
										}
									}
								}
							}
						}
					}
				}
			}
		}
	}
	JOINT mixamorig:RightUpLeg
	{
		OFFSET -8.207787 -6.751648 -1.599560
		CHANNELS 6 Xposition Yposition Zposition Xrotation Yrotation Zrotation
		JOINT mixamorig:RightLeg
		{
			OFFSET -0.000002 -44.370117 0.345942
			CHANNELS 6 Xposition Yposition Zposition Xrotation Yrotation Zrotation
			JOINT mixamorig:RightFoot
			{
				OFFSET 0.000003 -44.423679 -3.043532
				CHANNELS 6 Xposition Yposition Zposition Xrotation Yrotation Zrotation
				JOINT mixamorig:RightToeBase
				{
					OFFSET -0.000002 -8.728671 10.710558
					CHANNELS 6 Xposition Yposition Zposition Xrotation Yrotation Zrotation
					JOINT mixamorig:RightToe_End
					{
						OFFSET -0.000001 -0.000679 9.278119
						CHANNELS 6 Xposition Yposition Zposition Xrotation Yrotation Zrotation
						End Site
						{
							OFFSET 0.000000 -0.067690 927.812134
						}
					}
				}
			}
		}
	}
	JOINT mixamorig:LeftUpLeg
	{
		OFFSET 8.207793 -6.751686 -1.599556
		CHANNELS 6 Xposition Yposition Zposition Xrotation Yrotation Zrotation
		JOINT mixamorig:LeftLeg
		{
			OFFSET -0.000004 -44.370014 0.346954
			CHANNELS 6 Xposition Yposition Zposition Xrotation Yrotation Zrotation
			JOINT mixamorig:LeftFoot
			{
				OFFSET -0.000001 -44.423672 -3.044401
				CHANNELS 6 Xposition Yposition Zposition Xrotation Yrotation Zrotation
				JOINT mixamorig:LeftToeBase
				{
					OFFSET -0.000002 -8.728669 10.710558
					CHANNELS 6 Xposition Yposition Zposition Xrotation Yrotation Zrotation
					JOINT mixamorig:LeftToe_End
					{
						OFFSET -0.000003 -0.000679 9.278133
						CHANNELS 6 Xposition Yposition Zposition Xrotation Yrotation Zrotation
						End Site
						{
							OFFSET 0.000000 -0.068021 927.813477
						}
					}
				}
			}
		}
	}
}
MOTION
Frames: 3
Frame Time: 0.033333
0.000006 104.270477 1.554256 0.000010 0.000003 -0.000113 -0.000005 10.181587 0.131522 0.000001 -0.000003 0.000084 -0.000000 9.893967 -1.470711 0.000001 0.000000 -0.000000 -0.000000 9.220802 -1.370642 0.000000 -0.000000 -0.000000 0.000001 16.740433 -2.049030 0.000000 -0.000000 -0.000000 0.000000 9.617859 1.685014 0.000000 0.000000 0.000000 0.000002 22.037384 7.501101 0.000000 -0.000000 0.000000 -4.569968 11.014880 -2.160881 0.000008 0.000001 -0.000038 -10.592865 -0.524787 -2.231868 76.708851 36.635793 -29.359841 -27.841513 -0.000008 0.000560 -49.449866 107.347419 64.114426 -28.328814 0.000023 0.000029 -0.000322 -0.000043 0.000007 -2.464408 -1.573806 2.682326 -42.918136 -158.125969 1.300441 -3.215280 -1.872568 1.924635 152.533219 32.036569 8.527768 -2.654953 -1.527864 1.513077 145.780730 27.452277 -33.747446 -2.018833 -1.151995 1.108053 -0.000003 -0.000005 -0.000001 -9.108384 -0.517575 2.260177 110.686412 18.097049 -26.012820 -3.700073 0.000312 0.001556 104.322561 14.240483 -18.241110 -2.850088 0.000375 -0.000208 103.822571 10.664139 -13.580289 -2.772162 0.000000 -0.000020 0.000000 0.000000 -0.000001 -9.532601 0.000246 0.000297 106.941836 18.678406 -25.230224 -3.700089 0.000307 0.004035 105.823556 13.673892 -17.897054 -2.950050 0.000337 -0.001742 106.043222 11.583369 -15.334533 -2.946627 -0.000014 -0.000151 0.000001 -0.000002 0.000001 -9.103701 -0.042781 -1.864812 103.917278 21.368677 -27.055081 -3.379350 0.000292 -0.000734 106.072845 14.320471 -18.978188 -2.889753 0.000329 0.000717 109.410581 9.642107 -13.655623 -2.638813 -0.000001 0.000937 0.000001 0.000003 0.000001 -8.076778 -0.486412 -3.806026 84.491680 23.926335 -21.639498 -3.600079 0.000246 -0.003494 88.561216 16.564124 -15.779241 -2.100054 0.000296 -0.005468 91.839782 10.228433 -10.319970 -2.115784 -0.000042 -0.003677 -0.000002 0.000001 -0.000006 4.570446 11.014691 -2.160851 -0.000018 0.000010 -0.000021 10.592427 -0.524469 -2.232385 73.079090 -22.491410 16.763673 27.841841 0.000057 -0.000166 105.529653 -72.026667 87.448790 28.328844 -0.000027 0.000022 0.000029 -0.000090 0.000001 2.465981 -1.576143 2.681923 -40.837069 162.990703 -7.317891 3.217837 -1.871783 1.916375 158.549113 -27.273347 20.972504 2.656105 -1.528654 1.514460 136.199382 -28.787980 50.413524 2.020895 -1.154082 1.115145 -0.000000 0.000006 0.000001 9.109368 -0.517860 2.259731 85.202812 -15.174964 13.956036 3.700032 0.000154 -0.000457 81.792813 -12.505708 10.856783 2.850042 0.000203 0.000203 81.221953 -10.755653 9.228357 2.774880 -0.000045 -0.000026 0.000002 0.000001 -0.000000 9.533463 0.000226 -0.000104 86.310696 -13.748936 12.890296 3.700039 0.000180 -0.000384 87.398144 -11.049638 10.559239 2.950061 0.000167 -0.000206 88.641505 -14.329809 14.000311 2.952881 -0.000015 0.000066 0.000000 0.000000 -0.000000 9.104581 -0.042833 -1.865231 86.380931 -13.180309 12.381255 3.150064 0.000216 -0.000084 91.078756 -10.859542 11.066510 2.950030 0.000191 -0.000079 94.619942 -12.445164 13.484059 2.644317 0.000030 0.000055 -0.000002 -0.000000 0.000000 8.077841 -0.486719 -3.806387 77.797637 -15.619207 13.103720 3.600001 0.000193 0.014546 81.053431 -12.694021 11.298394 2.100048 0.000194 0.007540 84.519158 -12.197657 11.530439 2.125495 -0.000000 0.007513 -0.000002 -0.000002 0.000000 -8.207786 -6.751667 -1.599560 -0.077001 -0.000003 0.000080 -0.000002 -44.370110 0.345938 0.153719 -0.000000 -0.000000 0.000000 -44.423679 -3.043532 -0.076700 0.000000 -0.000002 -0.000006 -8.728667 10.710559 -0.000009 -0.000000 -0.000000 -0.000001 -0.000679 9.278123 0.000000 -0.000000 -0.000000 8.207792 -6.751710 -1.599556 -0.074518 -0.000003 0.000081 -0.000002 -44.370014 0.346960 0.148822 0.000002 0.000000 -0.000001 -44.423664 -3.044403 -0.074314 0.000000 -0.000002 -0.000004 -8.728671 10.710558 0.000007 -0.000000 -0.000000 0.000000 -0.000680 9.278137 -0.000000 0.000000 -0.000001 
0.000006 104.270477 1.554256 0.000010 0.000003 -0.000113 -0.000005 10.181587 0.131522 0.000001 -0.000003 0.000084 -0.000000 9.893967 -1.470711 0.000001 0.000000 -0.000000 -0.000000 9.220802 -1.370642 0.000000 -0.000000 -0.000000 0.000001 16.740433 -2.049030 0.000000 -0.000000 -0.000000 0.000000 9.617859 1.685014 0.000000 0.000000 0.000000 0.000002 22.037384 7.501101 0.000000 -0.000000 0.000000 -4.569968 11.014880 -2.160881 0.000008 0.000001 -0.000038 -10.592860 -0.524790 -2.231854 76.880760 38.983049 -31.384941 -27.841522 -0.000003 0.000561 -47.102272 104.489375 58.744265 -28.328812 0.000021 0.000033 -0.000319 -0.000046 0.000006 -2.464381 -1.573802 2.682300 -47.442873 -159.205426 -9.152245 -3.215266 -1.872552 1.924626 150.826655 32.453862 13.654428 -2.654949 -1.527876 1.513063 145.967754 27.441103 -33.506015 -2.018823 -1.151998 1.108072 -0.000003 0.000000 0.000004 -9.108337 -0.517562 2.260157 107.633700 14.765633 -20.153793 -3.700048 0.000302 0.001545 105.814124 11.324845 -14.911293 -2.850086 0.000378 -0.000206 106.031153 9.464697 -12.544267 -2.772164 0.000000 -0.000019 0.000000 0.000000 0.000000 -9.532572 0.000277 0.000280 105.012267 14.360712 -18.833398 -3.700063 0.000330 0.004022 105.184155 10.549210 -13.644814 -2.950049 0.000346 -0.001741 106.487055 10.170783 -13.579577 -2.946627 0.000000 -0.000152 0.000000 0.000001 0.000001 -9.103678 -0.042767 -1.864803 104.083791 17.848251 -22.704683 -3.379338 0.000315 -0.000738 107.813559 11.068691 -15.165593 -2.889783 0.000342 0.000697 111.811959 9.108686 -13.492629 -2.638814 0.000002 0.000934 -0.000001 -0.000001 -0.000001 -8.076756 -0.486431 -3.806010 86.712865 25.046690 -23.538089 -3.600072 0.000254 -0.003493 91.165069 14.544852 -14.451719 -2.100049 0.000304 -0.005446 94.815108 8.951876 -9.484793 -2.115770 -0.000044 -0.003680 0.000001 0.000000 -0.000002 4.570446 11.014691 -2.160851 -0.000018 0.000010 -0.000021 10.592434 -0.524464 -2.232378 73.097620 -23.621263 17.622146 27.841822 0.000041 -0.000190 106.379691 -75.815298 92.275159 28.328836 -0.000029 0.000023 0.000021 -0.000087 -0.000002 2.466149 -1.576158 2.681897 -20.896117 160.286781 -49.343288 3.217866 -1.871858 1.916404 162.790114 -23.484837 35.394132 2.656116 -1.528701 1.514486 135.645781 -28.914028 58.299851 2.020887 -1.154071 1.115151 -0.000002 0.000005 0.000001 9.109389 -0.517868 2.259730 84.439313 -17.092069 15.517710 3.700033 0.000156 -0.000469 82.873376 -10.322277 9.132015 2.850041 0.000189 0.000191 81.809349 -7.170366 6.213157 2.774885 -0.000031 -0.000028 -0.000001 0.000001 0.000001 9.533464 0.000215 -0.000098 85.155595 -15.986189 14.695277 3.700028 0.000188 -0.000383 87.375659 -8.368168 7.992204 2.950042 0.000199 -0.000210 88.180768 -8.661092 8.394061 2.952875 -0.000014 0.000062 0.000004 0.000002 -0.000001 9.104591 -0.042849 -1.865219 85.828205 -15.220361 14.163685 3.150050 0.000207 -0.000100 91.170458 -9.694693 9.895611 2.950018 0.000183 -0.000093 92.787157 -8.953106 9.399409 2.644332 0.000030 0.000056 0.000002 -0.000000 0.000000 8.077839 -0.486721 -3.806408 78.224483 -17.172305 14.482182 3.600014 0.000175 0.014573 80.396784 -14.737627 12.912868 2.100032 0.000191 0.007547 82.417850 -11.051846 10.103895 2.125496 -0.000000 0.007511 -0.000000 0.000001 0.000000 -8.207786 -6.751667 -1.599560 -0.077001 -0.000003 0.000080 -0.000002 -44.370110 0.345938 0.153719 -0.000000 -0.000000 0.000000 -44.423679 -3.043532 -0.076700 0.000000 -0.000002 -0.000006 -8.728667 10.710559 -0.000009 -0.000000 -0.000000 -0.000001 -0.000679 9.278123 0.000000 -0.000000 -0.000000 8.207792 -6.751710 -1.599556 -0.074518 -0.000003 0.000081 -0.000002 -44.370014 0.346960 0.148822 0.000002 0.000000 -0.000001 -44.423664 -3.044403 -0.074314 0.000000 -0.000002 -0.000004 -8.728671 10.710558 0.000007 -0.000000 -0.000000 0.000000 -0.000680 9.278137 -0.000000 0.000000 -0.000001 
0.000006 104.270477 1.554256 0.000010 0.000003 -0.000113 -0.000005 10.181587 0.131522 0.000001 -0.000003 0.000084 -0.000000 9.893967 -1.470711 0.000001 0.000000 -0.000000 -0.000000 9.220802 -1.370642 0.000000 -0.000000 -0.000000 0.000001 16.740433 -2.049030 0.000000 -0.000000 -0.000000 0.000000 9.617859 1.685014 0.000000 0.000000 0.000000 0.000002 22.037384 7.501101 0.000000 -0.000000 0.000000 -4.569968 11.014880 -2.160881 0.000008 0.000001 -0.000038 -10.592854 -0.524799 -2.231833 77.124563 42.616542 -34.546465 -27.841530 -0.000006 0.000564 -46.454306 103.369012 57.013662 -28.328815 0.000021 0.000033 -0.000321 -0.000045 0.000008 -2.464377 -1.573807 2.682314 -46.364735 -157.893538 -6.739827 -3.215264 -1.872564 1.924639 151.055630 32.490182 13.582026 -2.654949 -1.527879 1.513066 145.942018 27.401817 -34.016705 -2.018835 -1.152002 1.108054 -0.000003 0.000000 0.000005 -9.108358 -0.517556 2.260157 107.782099 14.693511 -20.110035 -3.700063 0.000323 0.001547 105.950454 11.390555 -15.034267 -2.850072 0.000349 -0.000217 106.047641 9.585140 -12.707131 -2.772175 -0.000001 -0.000019 -0.000001 -0.000002 -0.000001 -9.532574 0.000262 0.000285 104.769399 13.977929 -18.260074 -3.700076 0.000333 0.004013 104.895088 10.384074 -13.361067 -2.950067 0.000330 -0.001729 106.051145 10.113935 -13.398324 -2.946625 0.000001 -0.000156 0.000000 -0.000000 0.000000 -9.103684 -0.042755 -1.864832 103.288006 17.109607 -21.470269 -3.379341 0.000298 -0.000743 107.606120 10.610920 -14.487869 -2.889783 0.000330 0.000727 111.684303 8.923068 -13.188829 -2.638811 -0.000016 0.000938 0.000002 0.000004 0.000001 -8.076752 -0.486429 -3.806003 86.534918 24.216545 -22.682380 -3.600069 0.000257 -0.003498 90.630183 13.877530 -13.647016 -2.100014 0.000301 -0.005467 94.203847 8.604999 -9.012419 -2.115783 -0.000054 -0.003681 -0.000001 0.000001 -0.000003 4.570446 11.014691 -2.160851 -0.000018 0.000010 -0.000021 10.592466 -0.524469 -2.232406 72.826960 -34.563380 25.849775 27.841833 0.000046 -0.000197 107.714952 -77.002569 94.887993 28.328856 -0.000028 0.000020 0.000023 -0.000088 -0.000001 2.466053 -1.576178 2.681906 -29.241741 161.337469 -33.386279 3.217854 -1.871832 1.916389 161.437791 -23.981597 34.424382 2.656112 -1.528667 1.514479 134.956219 -29.169306 57.324357 2.020887 -1.154078 1.115144 0.000001 0.000002 0.000004 9.109371 -0.517862 2.259726 83.673150 -16.789375 15.040830 3.700034 0.000154 -0.000467 82.138994 -10.891655 9.512508 2.850042 0.000183 0.000198 81.249301 -7.965761 6.835277 2.774894 -0.000014 -0.000025 -0.000003 -0.000002 0.000000 9.533450 0.000200 -0.000093 84.656568 -15.923835 14.511734 3.700028 0.000178 -0.000370 86.791227 -9.412266 8.899048 2.950040 0.000182 -0.000209 87.389689 -9.569775 9.147991 2.952870 -0.000016 0.000062 0.000005 0.000001 0.000001 9.104582 -0.042844 -1.865222 85.189801 -15.449531 14.219113 3.150048 0.000210 -0.000096 90.038641 -10.809988 10.819042 2.950011 0.000194 -0.000087 91.701034 -9.798186 10.093747 2.644330 0.000030 0.000057 -0.000002 -0.000000 0.000001 8.077838 -0.486722 -3.806411 77.906900 -17.724554 14.854118 3.599994 0.000185 0.014564 79.379851 -15.437435 13.271522 2.100044 0.000188 0.007545 81.494457 -11.448655 10.286444 2.125496 0.000001 0.007514 -0.000000 0.000000 0.000000 -8.207786 -6.751667 -1.599560 -0.077001 -0.000003 0.000080 -0.000002 -44.370110 0.345938 0.153719 -0.000000 -0.000000 0.000000 -44.423679 -3.043532 -0.076700 0.000000 -0.000002 -0.000006 -8.728667 10.710559 -0.000009 -0.000000 -0.000000 -0.000001 -0.000679 9.278123 0.000000 -0.000000 -0.000000 8.207792 -6.751710 -1.599556 -0.074518 -0.000003 0.000081 -0.000002 -44.370014 0.346960 0.148822 0.000002 0.000000 -0.000001 -44.423664 -3.044403 -0.074314 0.000000 -0.000002 -0.000004 -8.728671 10.710558 0.000007 -0.000000 -0.000000 0.000000 -0.000680 9.278137 -0.000000 0.000000 -0.000001 
